<mxfile host="app.diagrams.net" modified="2023-04-21T08:18:37.488Z" agent="Mozilla/5.0 (Windows NT 10.0; Win64; x64) AppleWebKit/537.36 (KHTML, like Gecko) Chrome/112.0.0.0 Safari/537.36" etag="igjn_Mo_-B9MFjHvP2Nk" version="21.2.1" type="device">
  <diagram name="Page-1" id="5f0bae14-7c28-e335-631c-24af17079c00">
    <mxGraphModel dx="1687" dy="832" grid="1" gridSize="10" guides="1" tooltips="1" connect="1" arrows="1" fold="1" page="1" pageScale="1" pageWidth="1100" pageHeight="850" background="none" math="0" shadow="0">
      <root>
        <mxCell id="0" />
        <mxCell id="1" parent="0" />
        <mxCell id="39150e848f15840c-1" value="Server" style="verticalAlign=top;align=left;spacingTop=8;spacingLeft=2;spacingRight=12;shape=cube;size=10;direction=south;fontStyle=4;html=1;rounded=0;shadow=0;comic=0;labelBackgroundColor=none;strokeWidth=1;fontFamily=Verdana;fontSize=12" parent="1" vertex="1">
          <mxGeometry x="140" y="70" width="380" height="350" as="geometry" />
        </mxCell>
        <mxCell id="iVynDunTGt4qqbYlWAEz-1" value="" style="shape=mxgraph.signs.tech.computer;html=1;pointerEvents=1;fillColor=#000000;strokeColor=none;verticalLabelPosition=bottom;verticalAlign=top;align=center;" vertex="1" parent="1">
          <mxGeometry x="730" y="80" width="250" height="250" as="geometry" />
        </mxCell>
        <mxCell id="iVynDunTGt4qqbYlWAEz-2" value="&lt;u&gt;Klient&lt;/u&gt;" style="text;html=1;strokeColor=none;fillColor=none;align=center;verticalAlign=middle;whiteSpace=wrap;rounded=0;" vertex="1" parent="1">
          <mxGeometry x="740" y="90" width="60" height="30" as="geometry" />
        </mxCell>
        <mxCell id="iVynDunTGt4qqbYlWAEz-17" style="edgeStyle=orthogonalEdgeStyle;rounded=0;orthogonalLoop=1;jettySize=auto;html=1;exitX=0;exitY=0.25;exitDx=0;exitDy=0;entryX=1;entryY=0.5;entryDx=0;entryDy=0;entryPerimeter=0;endArrow=none;endFill=0;" edge="1" parent="1" source="iVynDunTGt4qqbYlWAEz-3" target="iVynDunTGt4qqbYlWAEz-14">
          <mxGeometry relative="1" as="geometry">
            <Array as="points">
              <mxPoint x="790" y="138" />
              <mxPoint x="703" y="138" />
            </Array>
          </mxGeometry>
        </mxCell>
        <mxCell id="iVynDunTGt4qqbYlWAEz-3" value="Frontend&lt;br&gt;webové aplikace" style="html=1;dropTarget=0;whiteSpace=wrap;" vertex="1" parent="1">
          <mxGeometry x="790" y="120" width="155" height="90" as="geometry" />
        </mxCell>
        <mxCell id="iVynDunTGt4qqbYlWAEz-4" value="" style="shape=module;jettyWidth=8;jettyHeight=4;" vertex="1" parent="iVynDunTGt4qqbYlWAEz-3">
          <mxGeometry x="1" width="20" height="20" relative="1" as="geometry">
            <mxPoint x="-27" y="7" as="offset" />
          </mxGeometry>
        </mxCell>
        <mxCell id="iVynDunTGt4qqbYlWAEz-30" style="edgeStyle=orthogonalEdgeStyle;rounded=0;orthogonalLoop=1;jettySize=auto;html=1;exitX=1;exitY=0.75;exitDx=0;exitDy=0;entryX=1;entryY=0.5;entryDx=0;entryDy=0;entryPerimeter=0;endArrow=none;endFill=0;" edge="1" parent="1" source="iVynDunTGt4qqbYlWAEz-5" target="iVynDunTGt4qqbYlWAEz-28">
          <mxGeometry relative="1" as="geometry">
            <Array as="points">
              <mxPoint x="310" y="180" />
            </Array>
          </mxGeometry>
        </mxCell>
        <mxCell id="iVynDunTGt4qqbYlWAEz-5" value="Backend&lt;br style=&quot;border-color: var(--border-color); font-family: Verdana;&quot;&gt;&lt;span style=&quot;font-family: Verdana;&quot;&gt;webové aplikace&lt;/span&gt;" style="html=1;dropTarget=0;whiteSpace=wrap;" vertex="1" parent="1">
          <mxGeometry x="150" y="120" width="160" height="70" as="geometry" />
        </mxCell>
        <mxCell id="iVynDunTGt4qqbYlWAEz-6" value="" style="shape=module;jettyWidth=8;jettyHeight=4;" vertex="1" parent="iVynDunTGt4qqbYlWAEz-5">
          <mxGeometry x="1" width="20" height="20" relative="1" as="geometry">
            <mxPoint x="-27" y="7" as="offset" />
          </mxGeometry>
        </mxCell>
        <mxCell id="iVynDunTGt4qqbYlWAEz-18" style="edgeStyle=orthogonalEdgeStyle;rounded=0;orthogonalLoop=1;jettySize=auto;html=1;exitX=0;exitY=0.5;exitDx=0;exitDy=0;exitPerimeter=0;entryX=1;entryY=0.25;entryDx=0;entryDy=0;endArrow=none;endFill=0;" edge="1" parent="1" source="iVynDunTGt4qqbYlWAEz-14" target="iVynDunTGt4qqbYlWAEz-5">
          <mxGeometry relative="1" as="geometry" />
        </mxCell>
        <mxCell id="iVynDunTGt4qqbYlWAEz-14" value="" style="shape=providedRequiredInterface;html=1;verticalLabelPosition=bottom;sketch=0;" vertex="1" parent="1">
          <mxGeometry x="580" y="120" width="35" height="35" as="geometry" />
        </mxCell>
        <mxCell id="iVynDunTGt4qqbYlWAEz-15" value="HTTP API" style="text;align=center;fontStyle=1;verticalAlign=middle;spacingLeft=3;spacingRight=3;strokeColor=none;rotatable=0;points=[[0,0.5],[1,0.5]];portConstraint=eastwest;html=1;" vertex="1" parent="1">
          <mxGeometry x="557.5" y="100" width="80" height="26" as="geometry" />
        </mxCell>
        <mxCell id="iVynDunTGt4qqbYlWAEz-42" style="edgeStyle=orthogonalEdgeStyle;rounded=0;orthogonalLoop=1;jettySize=auto;html=1;exitX=0.5;exitY=0;exitDx=0;exitDy=0;entryX=0;entryY=0.5;entryDx=0;entryDy=0;entryPerimeter=0;endArrow=none;endFill=0;" edge="1" parent="1" source="iVynDunTGt4qqbYlWAEz-19" target="iVynDunTGt4qqbYlWAEz-40">
          <mxGeometry relative="1" as="geometry" />
        </mxCell>
        <mxCell id="iVynDunTGt4qqbYlWAEz-19" value="Databáze" style="html=1;dropTarget=0;whiteSpace=wrap;" vertex="1" parent="1">
          <mxGeometry x="150" y="330" width="130" height="60" as="geometry" />
        </mxCell>
        <mxCell id="iVynDunTGt4qqbYlWAEz-20" value="" style="shape=module;jettyWidth=8;jettyHeight=4;" vertex="1" parent="iVynDunTGt4qqbYlWAEz-19">
          <mxGeometry x="1" width="20" height="20" relative="1" as="geometry">
            <mxPoint x="-27" y="7" as="offset" />
          </mxGeometry>
        </mxCell>
        <mxCell id="iVynDunTGt4qqbYlWAEz-39" style="edgeStyle=orthogonalEdgeStyle;rounded=0;orthogonalLoop=1;jettySize=auto;html=1;exitX=0;exitY=0.5;exitDx=0;exitDy=0;entryX=1;entryY=0.5;entryDx=0;entryDy=0;entryPerimeter=0;endArrow=none;endFill=0;" edge="1" parent="1" source="iVynDunTGt4qqbYlWAEz-23" target="iVynDunTGt4qqbYlWAEz-37">
          <mxGeometry relative="1" as="geometry" />
        </mxCell>
        <mxCell id="iVynDunTGt4qqbYlWAEz-23" value="Plánovač" style="html=1;dropTarget=0;whiteSpace=wrap;" vertex="1" parent="1">
          <mxGeometry x="350" y="330" width="140" height="60" as="geometry" />
        </mxCell>
        <mxCell id="iVynDunTGt4qqbYlWAEz-24" value="" style="shape=module;jettyWidth=8;jettyHeight=4;" vertex="1" parent="iVynDunTGt4qqbYlWAEz-23">
          <mxGeometry x="1" width="20" height="20" relative="1" as="geometry">
            <mxPoint x="-27" y="7" as="offset" />
          </mxGeometry>
        </mxCell>
        <mxCell id="iVynDunTGt4qqbYlWAEz-29" style="edgeStyle=orthogonalEdgeStyle;rounded=0;orthogonalLoop=1;jettySize=auto;html=1;exitX=0.5;exitY=0;exitDx=0;exitDy=0;entryX=0;entryY=0.5;entryDx=0;entryDy=0;entryPerimeter=0;endArrow=none;endFill=0;" edge="1" parent="1" source="iVynDunTGt4qqbYlWAEz-26" target="iVynDunTGt4qqbYlWAEz-28">
          <mxGeometry relative="1" as="geometry" />
        </mxCell>
        <mxCell id="iVynDunTGt4qqbYlWAEz-26" value="Fronta zpráv" style="html=1;dropTarget=0;whiteSpace=wrap;" vertex="1" parent="1">
          <mxGeometry x="350" y="215" width="140" height="60" as="geometry" />
        </mxCell>
        <mxCell id="iVynDunTGt4qqbYlWAEz-27" value="" style="shape=module;jettyWidth=8;jettyHeight=4;" vertex="1" parent="iVynDunTGt4qqbYlWAEz-26">
          <mxGeometry x="1" width="20" height="20" relative="1" as="geometry">
            <mxPoint x="-27" y="7" as="offset" />
          </mxGeometry>
        </mxCell>
        <mxCell id="iVynDunTGt4qqbYlWAEz-28" value="" style="shape=providedRequiredInterface;html=1;verticalLabelPosition=bottom;sketch=0;rotation=-180;" vertex="1" parent="1">
          <mxGeometry x="370" y="170" width="20" height="20" as="geometry" />
        </mxCell>
        <mxCell id="iVynDunTGt4qqbYlWAEz-35" style="edgeStyle=orthogonalEdgeStyle;rounded=0;orthogonalLoop=1;jettySize=auto;html=1;exitX=0;exitY=0.5;exitDx=0;exitDy=0;exitPerimeter=0;entryX=0.5;entryY=1;entryDx=0;entryDy=0;endArrow=none;endFill=0;" edge="1" parent="1" source="iVynDunTGt4qqbYlWAEz-34" target="iVynDunTGt4qqbYlWAEz-26">
          <mxGeometry relative="1" as="geometry" />
        </mxCell>
        <mxCell id="iVynDunTGt4qqbYlWAEz-36" style="edgeStyle=orthogonalEdgeStyle;rounded=0;orthogonalLoop=1;jettySize=auto;html=1;exitX=1;exitY=0.5;exitDx=0;exitDy=0;exitPerimeter=0;entryX=0.5;entryY=0;entryDx=0;entryDy=0;endArrow=none;endFill=0;" edge="1" parent="1" source="iVynDunTGt4qqbYlWAEz-34" target="iVynDunTGt4qqbYlWAEz-23">
          <mxGeometry relative="1" as="geometry" />
        </mxCell>
        <mxCell id="iVynDunTGt4qqbYlWAEz-34" value="" style="shape=providedRequiredInterface;html=1;verticalLabelPosition=bottom;sketch=0;rotation=90;" vertex="1" parent="1">
          <mxGeometry x="410" y="290" width="20" height="20" as="geometry" />
        </mxCell>
        <mxCell id="iVynDunTGt4qqbYlWAEz-38" style="edgeStyle=orthogonalEdgeStyle;rounded=0;orthogonalLoop=1;jettySize=auto;html=1;exitX=0;exitY=0.5;exitDx=0;exitDy=0;exitPerimeter=0;entryX=1;entryY=0.5;entryDx=0;entryDy=0;endArrow=none;endFill=0;" edge="1" parent="1" source="iVynDunTGt4qqbYlWAEz-37" target="iVynDunTGt4qqbYlWAEz-19">
          <mxGeometry relative="1" as="geometry" />
        </mxCell>
        <mxCell id="iVynDunTGt4qqbYlWAEz-37" value="" style="shape=providedRequiredInterface;html=1;verticalLabelPosition=bottom;sketch=0;" vertex="1" parent="1">
          <mxGeometry x="310" y="350" width="20" height="20" as="geometry" />
        </mxCell>
        <mxCell id="iVynDunTGt4qqbYlWAEz-41" style="edgeStyle=orthogonalEdgeStyle;rounded=0;orthogonalLoop=1;jettySize=auto;html=1;exitX=1;exitY=0.5;exitDx=0;exitDy=0;exitPerimeter=0;entryX=0.401;entryY=0.99;entryDx=0;entryDy=0;entryPerimeter=0;endArrow=none;endFill=0;" edge="1" parent="1" source="iVynDunTGt4qqbYlWAEz-40" target="iVynDunTGt4qqbYlWAEz-5">
          <mxGeometry relative="1" as="geometry" />
        </mxCell>
        <mxCell id="iVynDunTGt4qqbYlWAEz-40" value="" style="shape=providedRequiredInterface;html=1;verticalLabelPosition=bottom;sketch=0;rotation=-90;" vertex="1" parent="1">
          <mxGeometry x="205" y="250" width="20" height="20" as="geometry" />
        </mxCell>
      </root>
    </mxGraphModel>
  </diagram>
</mxfile>
